<svg width="34" height="25" viewBox="0 0 34 25" fill="none" xmlns="http://www.w3.org/2000/svg">
<path d="M31.9284 20.75C31.9284 21.297 31.7111 21.8216 31.3244 22.2084C30.9376 22.5952 30.413 22.8125 29.866 22.8125H5.11744C4.57046 22.8125 4.04589 22.5952 3.65912 22.2084C3.27234 21.8216 3.05506 21.297 3.05506 20.75V8.375C3.05506 7.82799 3.27234 7.30339 3.65912 6.91659C4.04589 6.5298 4.57046 6.3125 5.11744 6.3125H7.53455C9.17464 6.3116 10.7473 5.65952 11.9068 4.49956L13.6186 2.79181C14.0043 2.406 14.5271 2.18871 15.0726 2.1875H19.9068C20.4537 2.18762 20.9782 2.40499 21.3649 2.79181L23.0725 4.49956C23.6472 5.07441 24.3295 5.5304 25.0804 5.84147C25.8313 6.15254 26.6361 6.3126 27.4489 6.3125H29.866C30.413 6.3125 30.9376 6.5298 31.3244 6.91659C31.7111 7.30339 31.9284 7.82799 31.9284 8.375V20.75ZM5.11744 4.25C4.02349 4.25 2.97434 4.6846 2.20079 5.45818C1.42725 6.23177 0.992676 7.28098 0.992676 8.375L0.992676 20.75C0.992676 21.844 1.42725 22.8932 2.20079 23.6668C2.97434 24.4404 4.02349 24.875 5.11744 24.875H29.866C30.96 24.875 32.0091 24.4404 32.7827 23.6668C33.5562 22.8932 33.9908 21.844 33.9908 20.75V8.375C33.9908 7.28098 33.5562 6.23177 32.7827 5.45818C32.0091 4.6846 30.96 4.25 29.866 4.25H27.4489C26.3551 4.24977 25.3061 3.81502 24.5327 3.04138L22.8251 1.33362C22.0517 0.559984 21.0027 0.125234 19.9089 0.125H15.0746C13.9808 0.125234 12.9318 0.559984 12.1584 1.33362L10.4508 3.04138C9.6774 3.81502 8.62842 4.24977 7.53455 4.25H5.11744Z" fill="#464E5F"/>
<path d="M17.492 18.6875C16.1245 18.6875 14.8131 18.1443 13.8462 17.1773C12.8792 16.2103 12.336 14.8988 12.336 13.5312C12.336 12.1637 12.8792 10.8522 13.8462 9.88523C14.8131 8.91825 16.1245 8.375 17.492 8.375C18.8594 8.375 20.1709 8.91825 21.1378 9.88523C22.1047 10.8522 22.6479 12.1637 22.6479 13.5312C22.6479 14.8988 22.1047 16.2103 21.1378 17.1773C20.1709 18.1443 18.8594 18.6875 17.492 18.6875ZM17.492 20.75C19.4064 20.75 21.2424 19.9895 22.5961 18.6357C23.9498 17.2819 24.7103 15.4458 24.7103 13.5312C24.7103 11.6167 23.9498 9.7806 22.5961 8.42682C21.2424 7.07305 19.4064 6.3125 17.492 6.3125C15.5776 6.3125 13.7415 7.07305 12.3878 8.42682C11.0341 9.7806 10.2736 11.6167 10.2736 13.5312C10.2736 15.4458 11.0341 17.2819 12.3878 18.6357C13.7415 19.9895 15.5776 20.75 17.492 20.75ZM7.18006 9.40625C7.18006 9.67975 7.07142 9.94206 6.87803 10.1355C6.68464 10.3289 6.42236 10.4375 6.14887 10.4375C5.87538 10.4375 5.61309 10.3289 5.4197 10.1355C5.22632 9.94206 5.11768 9.67975 5.11768 9.40625C5.11768 9.13275 5.22632 8.87044 5.4197 8.67705C5.61309 8.48365 5.87538 8.375 6.14887 8.375C6.42236 8.375 6.68464 8.48365 6.87803 8.67705C7.07142 8.87044 7.18006 9.13275 7.18006 9.40625Z" fill="#464E5F"/>
</svg>
